<?xml version="1.0" standalone="no"?>
<!DOCTYPE svg PUBLIC "-//W3C//DTD SVG 20010904//EN"
 "http://www.w3.org/TR/2001/REC-SVG-20010904/DTD/svg10.dtd">
<svg version="1.0" xmlns="http://www.w3.org/2000/svg"
 width="500.000000pt" height="281.000000pt" viewBox="0 0 500.000000 281.000000"
 preserveAspectRatio="xMidYMid meet">

<g transform="translate(0.000000,281.000000) scale(0.100000,-0.100000)"
fill="#000000" stroke="none">
<path d="M912 1633 c-21 -4 -23 -9 -20 -51 2 -28 8 -47 16 -48 6 -1 39 -2 72
-3 l60 -1 0 -180 0 -180 60 0 60 0 0 180 0 180 80 0 80 0 0 55 0 55 -192 -1
c-106 -1 -203 -4 -216 -6z"/>
<path d="M2480 1405 l0 -235 60 0 60 0 0 127 c0 141 -2 140 57 33 66 -119 66
-120 98 -120 25 0 34 7 50 38 11 20 39 71 62 112 l43 75 0 -132 0 -133 60 0
60 0 0 235 0 236 -57 -3 -58 -3 -75 -132 c-41 -72 -79 -131 -85 -130 -5 0 -44
60 -85 131 l-75 131 -57 3 -58 3 0 -236z"/>
<path d="M2190 1575 c0 -41 -2 -45 -25 -45 -23 0 -25 -4 -25 -45 0 -41 2 -45
24 -45 22 0 23 -3 29 -99 6 -112 20 -144 75 -166 39 -17 99 -19 135 -6 24 9
25 11 12 48 -12 34 -16 38 -42 35 -40 -4 -50 11 -57 94 -5 55 -3 74 8 83 7 6
18 11 22 10 5 -1 22 -1 37 0 27 1 28 3 25 44 l-3 42 -47 3 -48 3 0 45 0 44
-60 0 -60 0 0 -45z"/>
<path d="M3870 1575 c0 -41 -2 -45 -25 -45 -22 0 -25 -5 -26 -35 -1 -19 -2
-41 -3 -47 -1 -7 10 -13 24 -13 25 0 25 -2 30 -102 4 -89 8 -104 29 -127 31
-33 83 -50 138 -43 58 6 65 14 51 59 -10 33 -14 36 -37 32 -46 -9 -62 21 -59
107 l3 74 43 3 42 3 0 45 0 44 -45 0 -45 0 0 45 0 45 -60 0 -60 0 0 -45z"/>
<path d="M1425 1536 c-5 -3 -22 -7 -37 -10 -37 -8 -98 -63 -114 -103 -65 -155
93 -304 267 -251 21 6 48 20 60 31 l21 20 -30 29 c-29 29 -30 30 -60 14 -37
-19 -75 -20 -105 -4 -23 12 -46 37 -47 51 0 4 61 7 136 7 l137 0 -5 49 c-6 63
-40 116 -89 141 -37 20 -113 34 -134 26z m83 -102 c12 -8 22 -24 22 -35 0 -17
-7 -19 -75 -19 -82 0 -89 7 -50 45 28 29 70 32 103 9z"/>
<path d="M1890 1526 c-19 -7 -43 -17 -52 -21 -13 -5 -18 -3 -18 9 0 13 -11 16
-55 16 l-55 0 0 -180 0 -180 60 0 60 0 0 103 c0 130 10 151 70 155 64 5 70 -8
70 -145 l0 -113 66 0 66 0 -4 133 c-4 147 -16 185 -67 212 -43 22 -101 27
-141 11z"/>
<path d="M3190 1524 c-30 -8 -59 -19 -64 -24 -12 -12 25 -92 38 -81 6 5 30 14
53 20 58 16 112 -6 113 -46 0 -9 -17 -13 -52 -13 -122 -1 -178 -36 -178 -111
0 -31 7 -47 28 -69 48 -47 150 -52 193 -9 19 19 19 19 19 -1 0 -18 7 -20 61
-20 l61 0 -4 128 c-4 142 -18 181 -74 214 -43 25 -128 31 -194 12z m140 -228
c0 -44 -46 -69 -94 -50 -21 8 -20 50 2 63 9 6 34 11 55 11 33 0 37 -3 37 -24z"/>
<path d="M3735 1533 c-11 -3 -32 -14 -47 -25 -28 -19 -28 -19 -28 1 0 19 -6
21 -60 21 l-60 0 0 -180 0 -180 60 0 60 0 0 101 c0 98 1 101 29 130 22 21 39
29 65 29 l36 0 0 55 c0 58 -3 61 -55 48z"/>
</g>
</svg>
